HIERARCHY
ROOT Hips
{
	OFFSET 0.000000 0.000000 0.000000
	CHANNELS 6 Xposition Yposition Zposition Xrotation Yrotation Zrotation
	JOINT LeftUpLeg_virtual
	{
		OFFSET 0.000000 0.000000 0.000000
		CHANNELS 3 Xrotation Yrotation Zrotation
		JOINT LeftUpLeg
		{
			OFFSET 10.205400 -3.823500 0.155100
			CHANNELS 3 Xrotation Yrotation Zrotation
			JOINT LeftLeg
			{
				OFFSET 0.708757 -12.982077 0.567790
				CHANNELS 3 Xrotation Yrotation Zrotation
				JOINT LeftFoot
				{
					OFFSET -0.708756 -10.717838 -2.184338
					CHANNELS 3 Xrotation Yrotation Zrotation
					JOINT LeftToeBase
					{
						OFFSET 0.108149 -7.191104 7.560241
						CHANNELS 3 Xrotation Yrotation Zrotation
						JOINT LeftToe_End
						{
							OFFSET 0.070230 0.081724 4.490308
							CHANNELS 3 Xrotation Yrotation Zrotation
							End Site
							{
								OFFSET 0 0 0
							}
						}
					}
				}
			}
		}
	}
	JOINT RightUpLeg_virtual
	{
		OFFSET 0.000000 0.000000 0.000000
		CHANNELS 3 Xrotation Yrotation Zrotation
		JOINT RightUpLeg
		{
			OFFSET -10.205400 -3.823500 0.005500
			CHANNELS 3 Xrotation Yrotation Zrotation
			JOINT RightLeg
			{
				OFFSET -0.708756 -12.982134 0.610632
				CHANNELS 3 Xrotation Yrotation Zrotation
				JOINT RightFoot
				{
					OFFSET 0.708754 -10.717769 -1.945823
					CHANNELS 3 Xrotation Yrotation Zrotation
					JOINT RightToeBase
					{
						OFFSET -0.108140 -7.191069 7.372968
						CHANNELS 3 Xrotation Yrotation Zrotation
						JOINT RightToe_End
						{
							OFFSET -0.070227 0.081735 4.479403
							CHANNELS 3 Xrotation Yrotation Zrotation
							End Site
							{
								OFFSET 0 0 0
							}
						}
					}
				}
			}
		}
	}
	JOINT Spine_virtual
	{
		OFFSET 0.000000 0.000000 0.000000
		CHANNELS 3 Xrotation Yrotation Zrotation
		JOINT Spine
		{
			OFFSET 0.000000 6.876099 0.125700
			CHANNELS 3 Xrotation Yrotation Zrotation
			JOINT Spine1
			{
				OFFSET 0.000000 5.730043 0.104720
				CHANNELS 3 Xrotation Yrotation Zrotation
				JOINT Spine1_split
				{
					OFFSET 0.000000 5.730043 0.104720
					CHANNELS 3 Xrotation Yrotation Zrotation
					JOINT Spine2
					{
						OFFSET 0.000000 5.730043 0.104720
						CHANNELS 3 Xrotation Yrotation Zrotation
						JOINT Neck_virtual
						{
							OFFSET 0.000000 0.000000 0.000000
							CHANNELS 3 Xrotation Yrotation Zrotation
							JOINT Neck
							{
								OFFSET 0.000000 10.314075 0.188496
								CHANNELS 3 Xrotation Yrotation Zrotation
								JOINT Head
								{
									OFFSET 0.000000 7.643700 -2.377400
									CHANNELS 3 Xrotation Yrotation Zrotation
									JOINT HeadTop_End
									{
										OFFSET 0.000000 43.788605 -13.619600
										CHANNELS 3 Xrotation Yrotation Zrotation
										End Site
										{
											OFFSET 0 0 0
										}
									}
								}
							}
						}
						JOINT LeftShoulder_virtual
						{
							OFFSET 0.000000 0.000000 0.000000
							CHANNELS 3 Xrotation Yrotation Zrotation
							JOINT LeftShoulder
							{
								OFFSET 2.196100 4.412489 0.087492
								CHANNELS 3 Xrotation Yrotation Zrotation
								JOINT LeftShoulder_split
								{
									OFFSET 2.196100 4.412489 0.087492
									CHANNELS 3 Xrotation Yrotation Zrotation
									JOINT LeftArm
									{
										OFFSET 8.771219 -2.981674 -0.026999
										CHANNELS 3 Xrotation Yrotation Zrotation
										JOINT LeftForeArm
										{
											OFFSET 8.512804 0.000000 -0.000000
											CHANNELS 3 Xrotation Yrotation Zrotation
											JOINT LeftHand
											{
												OFFSET 18.484802 0.000000 -0.000000
												CHANNELS 3 Xrotation Yrotation Zrotation
												End Site
												{
													OFFSET 0 0 0
												}
											}
										}
									}
								}
							}
						}
						JOINT RightShoulder_virtual
						{
							OFFSET 0.000000 0.000000 0.000000
							CHANNELS 3 Xrotation Yrotation Zrotation
							JOINT RightShoulder
							{
								OFFSET -2.196100 4.412496 0.070690
								CHANNELS 3 Xrotation Yrotation Zrotation
								JOINT RightShoulder_split
								{
									OFFSET -2.196100 4.412496 0.070690
									CHANNELS 3 Xrotation Yrotation Zrotation
									JOINT RightArm
									{
										OFFSET -8.771282 -2.981682 -0.094208
										CHANNELS 3 Xrotation Yrotation Zrotation
										JOINT RightForeArm
										{
											OFFSET -8.494598 0.000000 0.000000
											CHANNELS 3 Xrotation Yrotation Zrotation
											JOINT RightHand
											{
												OFFSET -18.483803 0.000000 0.000001
												CHANNELS 3 Xrotation Yrotation Zrotation
												End Site
												{
													OFFSET 0 0 0
												}
											}
										}
									}
								}
							}
						}
					}
				}
			}
		}
	}
}
MOTION
Frames: 11
Frame Time: 0.03333333
-2.679621 33.630535 -3.901051 0.000000 0.000000 0.000000 -9.773540 -3.371665 4.237296 -6.591700 6.926293 -2.929797 27.428793 -0.287887 -2.291787 -14.085669 4.990089 3.118752 -2.257685 0.088378 0.718526 0.000000 0.000000 0.000000 -9.049238 -3.913241 4.064980 -8.854623 -12.940494 -16.525171 36.787013 2.905069 0.632375 -19.161612 -17.318061 2.410079 -1.519136 0.273225 -0.434523 0.000000 0.000000 0.000000 -9.770648 -1.983224 4.250443 7.560015 0.600404 -2.897243 13.790388 2.530641 -1.422314 0.442246 -1.780535 0.694672 0.000000 0.000000 0.000000 14.222138 2.646748 -2.242805 30.464464 -0.738405 -4.633913 1.730306 -1.665765 -5.885153 0.000000 0.000000 0.000000 14.668449 3.012130 -2.886780 -4.170205 -23.134626 -26.028283 -3.172193 -1.215314 -4.865362 5.354707 -43.790563 -24.666883 8.824939 -20.157302 -2.085758 0.000000 0.000000 0.000000 14.271921 3.034099 -2.638707 -0.357430 23.783241 24.099006 -0.160777 0.499317 1.064057 -6.859029 21.453619 40.091930 35.400058 41.678801 -16.833181 0.000000 0.000000 0.000000 
-2.472367 33.731461 -3.827329 0.000000 0.000000 0.000000 -10.512894 -3.917991 4.753294 -3.488707 7.731864 -3.811701 24.305742 -0.412650 -2.497944 -13.027159 4.728189 2.850710 -1.281211 0.172336 0.529804 0.000000 0.000000 0.000000 -9.925048 -3.758394 4.498820 -7.068269 -13.671897 -18.024253 35.427771 3.043676 0.661468 -19.291912 -16.279826 2.913578 -1.208398 0.172277 -0.246234 0.000000 0.000000 0.000000 -11.081027 -1.723084 4.621469 7.715084 0.559868 -3.650649 12.254982 2.570091 -1.725440 0.865912 -1.727401 0.533736 0.000000 0.000000 0.000000 12.622396 2.724869 -2.432691 28.727041 -0.079580 -4.562450 1.365369 -0.244610 -6.067320 0.000000 0.000000 0.000000 13.224325 3.084743 -2.974172 -2.678579 -22.255992 -22.587246 -3.462492 -1.154118 -4.550270 4.993180 -40.945242 -28.007244 7.763237 -19.386382 -2.184855 0.000000 0.000000 0.000000 12.872302 3.079102 -2.784287 0.347486 22.171685 22.857098 0.201492 0.053752 1.506975 -2.376905 23.846494 40.858492 33.474364 43.859216 -15.669762 0.000000 0.000000 0.000000 
-2.324379 33.775204 -3.697177 0.000000 0.000000 0.000000 -10.676988 -4.330857 4.977820 -1.395827 8.262943 -4.366030 21.982458 -0.435171 -2.624949 -12.305929 4.315635 2.857057 -0.623094 0.180476 0.403353 0.000000 0.000000 0.000000 -10.294609 -3.466027 4.707911 -5.880775 -14.012884 -19.128522 34.626706 3.237836 0.767740 -19.610644 -15.332795 3.678784 -1.444286 0.098469 -0.208506 0.000000 0.000000 0.000000 -11.614579 -1.364848 4.758193 7.639098 0.487812 -4.302935 10.764936 2.572767 -2.010421 0.954907 -1.775114 0.249246 0.000000 0.000000 0.000000 11.149602 2.742608 -2.632378 26.945463 0.429746 -4.042439 0.645876 0.769093 -5.863812 0.000000 0.000000 0.000000 11.819116 3.097222 -3.053926 -1.033356 -21.361803 -18.527144 -3.924564 -1.016103 -4.248110 4.470373 -36.401309 -31.575493 8.409942 -20.131834 -1.278866 0.000000 0.000000 0.000000 11.450524 3.061187 -2.932282 1.194587 20.403081 20.614291 0.460561 -0.335414 1.976218 1.142418 24.923427 41.974419 32.527369 45.381853 -15.408437 0.000000 0.000000 0.000000 
-2.253960 33.774338 -3.572949 0.000000 0.000000 0.000000 -10.479774 -4.575250 4.915126 -0.403317 8.638864 -4.539522 20.648765 -0.410451 -2.732327 -11.739521 3.803381 3.159628 -0.430701 0.116087 0.414774 0.000000 0.000000 0.000000 -10.252595 -3.256818 4.738023 -5.367792 -13.952027 -19.973194 34.292157 3.503958 0.985736 -19.625406 -14.560999 4.684128 -2.145493 0.044994 -0.303044 0.000000 0.000000 0.000000 -11.572762 -1.161489 4.654631 7.274737 0.454900 -4.740235 9.384608 2.540432 -2.239970 1.160973 -1.941626 0.124362 0.000000 0.000000 0.000000 9.842513 2.704935 -2.801316 25.030847 0.788847 -3.263764 -0.531883 1.429815 -5.385864 0.000000 0.000000 0.000000 10.561711 3.036216 -3.148358 0.565488 -20.282197 -14.471019 -4.485750 -1.052403 -4.256223 4.278677 -30.632825 -35.090001 10.657540 -21.230120 0.299844 0.000000 0.000000 0.000000 10.114749 2.993897 -3.076257 2.061389 18.557124 17.719782 0.249531 -0.443989 2.546150 2.971632 24.326079 43.669419 32.767430 45.937052 -16.102366 0.000000 0.000000 0.000000 
-2.225908 33.750198 -3.484690 0.000000 0.000000 0.000000 -10.177405 -4.706869 4.679711 -0.196409 8.931833 -4.525831 20.076801 -0.302450 -2.848889 -11.423122 3.422187 3.762336 -0.435119 0.028677 0.478575 0.000000 0.000000 0.000000 -9.974779 -3.315176 4.653629 -5.346989 -13.693244 -20.595312 34.225825 3.697725 1.259058 -19.302026 -14.106389 5.493186 -2.788206 -0.001065 -0.423679 0.000000 0.000000 0.000000 -11.172720 -1.290977 4.394590 6.721709 0.474771 -4.949320 8.141656 2.489519 -2.376452 1.207562 -1.855267 0.385873 0.000000 0.000000 0.000000 8.756221 2.625575 -2.899077 22.989858 1.007859 -2.480612 -1.986231 1.761554 -4.811417 0.000000 0.000000 0.000000 9.458161 2.929324 -3.241993 1.903452 -18.972590 -11.099004 -5.182137 -1.222532 -4.244647 3.909866 -24.245795 -38.648461 14.155982 -21.132110 2.061902 0.000000 0.000000 0.000000 8.931032 2.901706 -3.164928 2.843842 16.786494 14.750856 -0.229157 -0.276281 3.248221 3.005480 22.105506 46.010869 33.955565 45.386675 -17.329775 0.000000 0.000000 0.000000 
-2.192415 33.723614 -3.426170 0.000000 0.000000 0.000000 -9.872716 -4.681592 4.395968 -0.458700 9.160708 -4.518602 19.840742 -0.108949 -2.949822 -11.420022 3.236930 4.500398 -0.293304 -0.025609 0.490840 0.000000 0.000000 0.000000 -9.616345 -3.589504 4.524325 -5.503157 -13.439154 -20.986426 34.134164 3.707436 1.609240 -19.058926 -13.982603 5.650223 -2.941908 -0.036565 -0.486857 0.000000 0.000000 0.000000 -10.696424 -1.720617 4.145137 6.029703 0.514724 -4.968780 7.054104 2.421590 -2.409462 1.264520 -1.869652 0.612132 0.000000 0.000000 0.000000 7.822424 2.519405 -2.877780 20.880585 1.092236 -1.899133 -3.276041 1.890137 -4.344893 0.000000 0.000000 0.000000 8.505655 2.795950 -3.262106 2.897381 -17.539880 -8.568178 -5.732481 -1.565486 -4.273524 2.449646 -17.572907 -42.435726 17.963471 -19.462008 3.316607 0.000000 0.000000 0.000000 7.939709 2.792932 -3.148244 3.477017 15.257488 12.220603 -0.876236 -0.058944 4.165534 1.656788 18.555887 48.943790 35.628244 43.826913 -18.490446 0.000000 0.000000 0.000000 
-2.151558 33.718380 -3.392344 0.000000 0.000000 0.000000 -9.638089 -4.649008 4.183121 -0.600074 9.348584 -4.584041 19.555774 0.058941 -2.997439 -11.679582 3.146154 5.023687 -0.151012 -0.030525 0.459194 0.000000 0.000000 0.000000 -9.320800 -3.910566 4.450554 -5.517895 -13.366691 -21.161968 33.877175 3.526685 1.987117 -19.121989 -14.095876 5.088699 -2.627475 -0.047708 -0.461886 0.000000 0.000000 0.000000 -10.317214 -2.332244 3.983101 5.375520 0.533266 -4.911300 6.135518 2.330864 -2.368620 1.516143 -1.790951 0.847208 0.000000 0.000000 0.000000 6.982429 2.405027 -2.736798 18.783632 1.080707 -1.609125 -4.059656 1.928834 -4.103859 0.000000 0.000000 0.000000 7.630494 2.654973 -3.183225 3.497680 -16.074449 -6.949294 -6.105239 -2.034450 -3.941420 -0.026730 -10.612826 -45.997110 21.496781 -16.912368 3.630006 0.000000 0.000000 0.000000 7.145884 2.673755 -3.024762 3.969116 14.081245 10.487662 -1.348755 0.415653 4.653417 -0.225351 14.340607 52.063653 37.363887 41.566202 -19.082807 0.000000 0.000000 0.000000 
-2.081403 33.727509 -3.333172 0.000000 0.000000 0.000000 -9.500276 -4.756440 4.098306 -0.351126 9.473775 -4.704040 19.195372 0.135465 -2.959421 -12.002380 3.051330 5.229068 -0.147694 0.006222 0.373507 0.000000 0.000000 0.000000 -9.152286 -4.192104 4.441930 -5.301487 -13.491299 -21.184146 33.545576 3.258212 2.374643 -19.367485 -14.366676 4.221407 -2.254509 -0.039194 -0.372842 0.000000 0.000000 0.000000 -10.110486 -2.930778 3.971550 4.858647 0.479573 -4.867374 5.378507 2.231717 -2.308810 1.467626 -1.348051 0.908733 0.000000 0.000000 0.000000 6.228879 2.295528 -2.518739 16.761848 0.971207 -1.597165 -4.081419 1.808522 -4.072678 0.000000 0.000000 0.000000 6.817285 2.531616 -3.017508 3.792442 -14.752548 -6.041215 -6.055079 -2.822591 -3.293918 -3.278812 -3.532936 -48.940368 24.401317 -14.369261 3.014010 0.000000 0.000000 0.000000 6.513546 2.551302 -2.825522 4.297178 13.248404 9.568419 -1.615087 0.907563 4.485816 -1.883960 9.918749 54.941905 38.776575 38.935753 -18.862290 0.000000 0.000000 0.000000 
-2.011724 33.741879 -3.232294 0.000000 0.000000 0.000000 -9.438409 -5.068909 4.154184 0.307728 9.611511 -4.804826 18.977751 0.094887 -2.808205 -12.254561 2.772019 5.245164 -0.250547 0.053254 0.260843 0.000000 0.000000 0.000000 -9.143318 -4.405854 4.517160 -4.994638 -13.685672 -21.189403 33.195518 3.135454 2.760823 -19.523476 -14.571191 3.724220 -2.202650 -0.013220 -0.287548 0.000000 0.000000 0.000000 -10.070916 -3.319785 4.120581 4.500082 0.364967 -4.853925 4.777363 2.121698 -2.268531 1.426804 -0.935990 0.657408 0.000000 0.000000 0.000000 5.533281 2.186043 -2.290344 14.813062 0.789204 -1.741665 -3.405554 1.441062 -4.096250 0.000000 0.000000 0.000000 6.101543 2.423116 -2.809551 3.872738 -13.731630 -5.443309 -5.647225 -3.584552 -2.764369 -6.296689 3.066952 -51.102465 26.537201 -12.717616 1.815908 0.000000 0.000000 0.000000 6.006352 2.431503 -2.599864 4.423596 12.706909 9.218714 -1.761357 1.022272 3.523404 -2.924083 5.842669 57.342614 39.659316 36.442228 -17.983468 0.000000 0.000000 0.000000 
-1.975808 33.743778 -3.076979 0.000000 0.000000 0.000000 -9.480069 -5.646710 4.304243 1.286074 9.840733 -4.833946 18.975138 -0.034141 -2.565311 -12.461096 2.308807 5.208789 -0.356767 0.093510 0.132825 0.000000 0.000000 0.000000 -9.243797 -4.636092 4.621383 -4.731215 -13.807968 -21.256727 32.955390 3.245434 3.046827 -19.487431 -14.631483 3.851023 -2.513317 0.012262 -0.214036 0.000000 0.000000 0.000000 -10.159949 -3.474320 4.337537 4.352008 0.227325 -4.849205 4.310407 2.013651 -2.274332 1.165935 -0.417221 0.371204 0.000000 0.000000 0.000000 4.977018 2.081980 -2.121735 12.898057 0.561896 -1.902095 -2.385502 0.757386 -3.988117 0.000000 0.000000 0.000000 5.497782 2.334780 -2.640553 3.831451 -13.135666 -4.985263 -4.899497 -4.231375 -2.354482 -7.926443 8.425671 -52.488218 28.085719 -12.256251 0.451819 0.000000 0.000000 0.000000 5.595274 2.322541 -2.403087 4.363529 12.311972 9.134053 -1.869375 1.104351 2.204289 -3.152848 2.547933 59.208287 40.035038 34.498804 -16.781804 0.000000 0.000000 0.000000 
-1.971958 33.721638 -2.878280 0.000000 0.000000 0.000000 -9.607723 -6.358617 4.472918 2.330455 10.214460 -4.837564 19.089626 -0.126485 -2.270855 -12.769750 1.762862 5.241521 -0.364958 0.129339 -0.015600 0.000000 0.000000 0.000000 -9.397016 -4.959075 4.719491 -4.498467 -13.801120 -21.386480 32.894536 3.470973 3.211411 -19.410330 -14.576624 4.311457 -2.868256 0.017889 -0.153141 0.000000 0.000000 0.000000 -10.315420 -3.455548 4.548009 4.341961 0.115389 -4.783025 3.990637 1.924985 -2.301425 0.854844 0.065838 0.089693 0.000000 0.000000 0.000000 4.604914 1.987430 -2.041714 10.948444 0.312307 -1.968384 -1.389992 -0.268228 -3.541863 0.000000 0.000000 0.000000 5.058459 2.266026 -2.537063 3.751038 -13.031329 -4.514353 -4.087922 -4.755310 -2.359356 -7.512704 11.850552 -53.500622 29.114989 -12.738638 -0.649535 0.000000 0.000000 0.000000 5.257768 2.233617 -2.273681 4.128040 11.998802 9.045462 -1.877793 1.039462 0.975820 -2.571857 0.314840 60.669401 39.914000 33.250051 -15.549438 0.000000 0.000000 0.000000 
